<svg width="188" height="257" viewBox="0 0 188 257" fill="none" xmlns="http://www.w3.org/2000/svg">
<path d="M149.164 18.21C167.589 32.4682 183.102 54.2934 186.175 77.919C187.511 92.3087 187.729 106.665 182.39 120.237C181.966 121.454 181.542 122.671 181.105 123.925C166.01 166.889 136.173 228.474 97.3901 255.237C94.0151 256.675 94.0151 256.675 90.3901 256.237C49.2567 231.344 13.7742 156.01 1.70262 112.444C0.167141 106.052 -0.0700591 99.9151 0.0151175 93.3624C0.025994 92.2191 0.0368704 91.0757 0.0480765 89.8978C0.548757 63.3542 12.0028 42.6551 30.4995 24.1241C63.2787 -6.68114 113.377 -7.24357 149.164 18.21Z" fill="#F3F3F3"/>
<path d="M149.554 18.4475C167.979 32.7056 183.492 54.5308 186.565 78.1564C187.901 92.5461 188.119 106.902 182.78 120.475C182.356 121.692 181.932 122.909 181.495 124.162C166.401 167.126 136.563 228.711 97.7803 255.475C94.4053 256.912 94.4053 256.912 90.7803 256.475C49.6468 231.582 14.1643 156.248 2.09275 112.682C0.557278 106.289 0.320078 100.153 0.405254 93.5998C0.416131 92.4565 0.427007 91.3132 0.438213 90.1352C0.938894 63.5916 12.3929 42.8925 30.8896 24.3615C63.6688 -6.44372 113.767 -7.00614 149.554 18.4475ZM43.7803 40.4748C43.1499 40.9917 42.5196 41.5086 41.8701 42.0412C28.8715 53.8555 20.5379 72.8541 19.4248 90.1154C18.53 112.376 25.9347 130.876 40.6123 147.557C53.7755 161.578 72.6243 169.108 91.6186 169.928C111.396 170.309 130.448 163.344 144.777 149.602C159.378 135.013 168.063 116.106 168.218 95.3498C167.931 76.2234 160.898 60.1698 148.78 45.4748C148.263 44.8445 147.746 44.2141 147.214 43.5646C135.724 30.9226 116.66 22.3378 99.768 21.3581C78.1955 20.4003 60.4647 26.7165 43.7803 40.4748Z" fill="#287BF6"/>
<path d="M66.8293 45.7198C68.7518 45.7009 68.7518 45.7009 70.713 45.6816C72.1041 45.6888 73.4952 45.697 74.8862 45.7062C76.322 45.7035 77.7578 45.6996 79.1936 45.6946C82.1988 45.6887 85.2036 45.6972 88.2087 45.7159C92.0501 45.7387 95.8903 45.7256 99.7316 45.7017C102.696 45.6872 105.66 45.6918 108.624 45.7022C110.039 45.7048 111.455 45.7016 112.871 45.6922C114.854 45.682 116.838 45.7004 118.822 45.7198C120.511 45.7246 120.511 45.7246 122.235 45.7295C127.245 46.536 130.367 48.9741 133.515 52.8624C139.39 63.4374 139.39 63.4374 139.39 68.2374C140.161 68.142 140.932 68.0466 141.726 67.9484C143.23 67.7821 143.23 67.7821 144.765 67.6124C145.763 67.4964 146.761 67.3804 147.789 67.2609C148.647 67.2531 149.506 67.2454 150.39 67.2374C152.805 69.6523 152.686 70.3645 152.703 73.6749C152.719 74.4574 152.736 75.2398 152.753 76.046C152.39 78.2374 152.39 78.2374 151.121 80.0226C149.39 81.2374 149.39 81.2374 145.39 81.2374C145.595 81.8523 145.8 82.4672 146.011 83.1007C148.15 89.5162 149.566 94.8897 149.628 101.702C149.636 102.532 149.645 103.362 149.653 104.217C149.667 105.971 149.677 107.725 149.685 109.479C149.703 112.162 149.746 114.843 149.791 117.525C149.801 119.23 149.809 120.935 149.816 122.64C149.833 123.441 149.851 124.242 149.869 125.067C149.855 128.666 149.713 130.797 147.557 133.742C144.586 135.793 142.474 135.77 138.89 135.737C137.766 135.748 136.642 135.758 135.484 135.769C132.39 135.237 132.39 135.237 129.984 133.831C128.39 131.237 128.39 131.237 128.39 121.237C105.29 121.237 82.1901 121.237 58.3901 121.237C58.3901 124.537 58.3901 127.837 58.3901 131.237C56.7964 133.831 56.7964 133.831 54.3901 135.237C51.2964 135.769 51.2964 135.769 47.8901 135.737C46.7661 135.748 45.642 135.758 44.4839 135.769C40.6436 135.109 39.7018 134.348 37.3901 131.237C37.0034 128.404 36.8519 125.969 36.894 123.14C36.8926 122.35 36.8911 121.561 36.8896 120.747C36.8913 119.075 36.9028 117.404 36.9236 115.732C36.9523 113.208 36.9442 110.686 36.9312 108.161C36.9444 98.837 37.1235 89.7708 41.3901 81.2374C40.6064 81.1137 39.8226 80.9899 39.0151 80.8624C36.3901 80.2374 36.3901 80.2374 34.3901 78.2374C34.1245 76.1437 34.1245 76.1437 34.1401 73.7374C34.135 72.9434 34.1298 72.1493 34.1245 71.3312C34.3901 69.2374 34.3901 69.2374 36.3901 67.2374C38.9917 67.2609 38.9917 67.2609 42.0151 67.6124C43.018 67.7233 44.0209 67.8341 45.0542 67.9484C46.2105 68.0915 46.2105 68.0915 47.3901 68.2374C47.5487 67.6084 47.7072 66.9793 47.8706 66.3312C50.6368 56.1835 54.8594 45.7537 66.8293 45.7198Z" fill="#287BF6"/>
<path d="M70.0891 56.6881C71.2338 56.6691 72.3786 56.65 73.558 56.6304C74.7904 56.6322 76.0227 56.634 77.2924 56.6359C79.1972 56.623 79.1972 56.623 81.1405 56.6099C83.8267 56.5984 86.5114 56.5956 89.1975 56.6061C92.6324 56.6177 96.0653 56.5838 99.4999 56.5374C102.785 56.5008 106.07 56.5083 109.355 56.5109C110.585 56.4925 111.816 56.4741 113.083 56.4551C121.344 56.5447 121.344 56.5447 124.228 58.4538C126.655 61.2309 128.268 64.613 129.628 68.0226C129.973 68.8831 130.318 69.7435 130.673 70.63C131.013 71.5111 131.353 72.3922 131.703 73.3C132.062 74.1849 132.421 75.0698 132.79 75.9816C134.471 80.2483 135.72 83.5853 135.39 88.2375C133.65 89.9778 131.392 89.3635 129.073 89.373C127.931 89.3699 127.931 89.3699 126.765 89.3669C125.568 89.3695 125.568 89.3695 124.346 89.3722C121.694 89.3766 119.042 89.3736 116.39 89.3703C114.555 89.3709 112.721 89.3719 110.886 89.3732C107.036 89.3746 103.186 89.3725 99.3354 89.3678C94.3885 89.3621 89.4417 89.3654 84.4948 89.3714C80.7049 89.375 76.9149 89.3739 73.1249 89.3713C71.3004 89.3706 69.4759 89.3714 67.6513 89.3738C65.1059 89.3763 62.5605 89.3724 60.0151 89.3669C59.2535 89.3689 58.4919 89.3709 57.7072 89.373C52.5043 89.3517 52.5043 89.3517 51.3901 88.2375C50.549 82.0897 53.2222 77.1 55.6401 71.6125C56.0358 70.6714 56.4316 69.7304 56.8393 68.7609C62.0377 56.7619 62.0377 56.7619 70.0891 56.6881Z" fill="#F3F3F3"/>
<path d="M120.046 96.1046C121.456 96.1027 121.456 96.1027 122.894 96.1007C123.883 96.1046 124.871 96.1085 125.89 96.1124C127.373 96.1066 127.373 96.1066 128.886 96.1007C129.826 96.102 130.766 96.1033 131.734 96.1046C132.602 96.1058 133.47 96.1069 134.365 96.108C136.39 96.2374 136.39 96.2374 137.39 97.2374C137.489 99.0686 137.52 100.904 137.515 102.737C137.519 104.238 137.519 104.238 137.523 105.769C137.39 108.237 137.39 108.237 136.39 109.237C134.841 109.336 133.287 109.368 131.734 109.37C130.324 109.372 130.324 109.372 128.886 109.374C127.898 109.37 126.909 109.366 125.89 109.362C124.901 109.366 123.913 109.37 122.894 109.374C121.954 109.373 121.015 109.372 120.046 109.37C119.178 109.369 118.31 109.368 117.416 109.367C115.39 109.237 115.39 109.237 114.39 108.237C114.292 106.406 114.26 104.571 114.265 102.737C114.263 101.737 114.26 100.737 114.257 99.7062C114.487 95.4384 116.235 96.1096 120.046 96.1046Z" fill="#F3F3F3"/>
<path d="M55.0464 96.1046C56.456 96.1027 56.456 96.1027 57.894 96.1007C58.8828 96.1046 59.8715 96.1085 60.8901 96.1124C62.3732 96.1066 62.3732 96.1066 63.8862 96.1007C64.826 96.102 65.7657 96.1033 66.7339 96.1046C67.6021 96.1058 68.4703 96.1069 69.3647 96.108C71.3901 96.2374 71.3901 96.2374 72.3901 97.2374C72.4886 99.0686 72.5199 100.904 72.5151 102.737C72.519 104.238 72.519 104.238 72.5229 105.769C72.3901 108.237 72.3901 108.237 71.3901 109.237C69.8406 109.336 68.2866 109.368 66.7339 109.37C65.3243 109.372 65.3243 109.372 63.8862 109.374C62.8975 109.37 61.9088 109.366 60.8901 109.362C59.9014 109.366 58.9127 109.37 57.894 109.374C56.9543 109.373 56.0146 109.372 55.0464 109.37C54.1782 109.369 53.31 109.368 52.4155 109.367C50.3901 109.237 50.3901 109.237 49.3901 108.237C49.2916 106.406 49.2604 104.571 49.2651 102.737C49.2626 101.737 49.26 100.737 49.2573 99.7062C49.4869 95.4384 51.2346 96.1096 55.0464 96.1046Z" fill="#F3F3F3"/>
</svg>
